<?xml version="1.0" encoding="UTF-8" standalone="no"?>
<!-- Created with Inkscape (http://www.inkscape.org/) -->

<svg
   xmlns:dc="http://purl.org/dc/elements/1.1/"
   xmlns:cc="http://creativecommons.org/ns#"
   xmlns:rdf="http://www.w3.org/1999/02/22-rdf-syntax-ns#"
   xmlns:svg="http://www.w3.org/2000/svg"
   xmlns="http://www.w3.org/2000/svg"
   xmlns:sodipodi="http://sodipodi.sourceforge.net/DTD/sodipodi-0.dtd"
   xmlns:inkscape="http://www.inkscape.org/namespaces/inkscape"
   width="210mm"
   height="297mm"
   viewBox="0 0 210 297"
   version="1.1"
   id="svg20"
   sodipodi:docname="dibujo2.svg"
   inkscape:version="0.92.3 (2405546, 2018-03-11)">
  <defs
     id="defs14" />
  <sodipodi:namedview
     id="base"
     pagecolor="#ffffff"
     bordercolor="#666666"
     borderopacity="1.0"
     inkscape:pageopacity="0.0"
     inkscape:pageshadow="2"
     inkscape:zoom="1.18"
     inkscape:cx="465.42765"
     inkscape:cy="1045.3071"
     inkscape:document-units="mm"
     inkscape:current-layer="layer1"
     showgrid="false"
     inkscape:window-width="1366"
     inkscape:window-height="705"
     inkscape:window-x="-8"
     inkscape:window-y="-8"
     inkscape:window-maximized="1" />
  <metadata
     id="metadata17">
    <rdf:RDF>
      <cc:Work
         rdf:about="">
        <dc:format>image/svg+xml</dc:format>
        <dc:type
           rdf:resource="http://purl.org/dc/dcmitype/StillImage" />
      </cc:Work>
    </rdf:RDF>
  </metadata>
  <g
     inkscape:label="Capa 1"
     inkscape:groupmode="layer"
     id="layer1">
    <path
       style="fill:#916f6f;stroke-width:0.02732191"
       id="path42"
       d="m 18.820489,5.9911805 c 0.908577,0.071847 1.768806,0.2304396 2.610416,0.4123631 0.626067,0.1553617 1.260006,0.3319474 1.686047,0.6197189 0.268582,0.1814148 0.301367,0.2528545 0.487374,0.4643951 0.470309,0.7744451 0.741704,1.5791958 0.911436,2.3838487 0.05455,0.2585907 0.09011,0.5181187 0.135156,0.7771797 0.199888,1.291499 0.189424,2.606058 -0.352496,3.87879 -0.412991,0.96994 -0.810915,1.4112 -1.496128,2.358107 -1.832938,2.280673 -3.950322,4.499397 -5.860146,6.763317 -0.341388,0.40469 -0.664137,0.813327 -0.996204,1.21999 -1.023258,1.328342 -1.940743,2.685677 -2.41774,4.093658 -0.04339,0.260928 -0.189188,0.542447 -0.04811,0.802937 0.01816,0.03352 0.04797,0.06515 0.07198,0.09772 0.232968,0.176314 0.385725,0.21137 0.771889,0.131853 0.702364,-0.201882 -1.0488,0.301476 -1.094643,0.314298 -0.04913,0.01375 0.09382,-0.03129 0.13904,-0.04811 0.128051,-0.04768 0.236616,-0.101551 0.344676,-0.16011 0.194861,-0.102019 0.255346,-0.228126 0.29013,-0.363993 0.02327,-0.149993 0.02603,-0.30053 0.03096,-0.450882 0,0 1.417395,-0.36468 1.417395,-0.36468 v 0 c 0.0038,0.150428 0.01355,0.301109 -4.53e-4,0.451462 -0.01762,0.146697 -0.06054,0.292101 -0.246927,0.410852 -0.560093,0.33392 -1.353335,0.554459 -2.160123,0.708879 -0.458478,0.0411 -0.661318,-0.04199 -0.895254,-0.236345 -0.06986,-0.0974 -0.105913,-0.131891 -0.132686,-0.238172 -0.0608,-0.241376 0.08117,-0.485347 0.148423,-0.721511 0.640152,-1.438135 1.654541,-2.824174 2.750467,-4.187947 0.343745,-0.409803 0.679365,-0.821376 1.031245,-1.229413 1.939722,-2.249296 4.041399,-4.464081 5.817563,-6.748853 0.652234,-0.936327 1.029222,-1.370913 1.422137,-2.327293 0.518656,-1.262451 0.52568,-2.561742 0.269773,-3.839276 C 23.399167,10.70901 23.352351,10.45346 23.286116,10.199103 23.080867,9.4108595 22.755699,8.625839 22.262259,7.8705298 22.08133,7.6757017 22.035091,7.5979993 21.784857,7.4294432 21.371462,7.150978 20.761179,6.979836 20.148176,6.8357652 19.305534,6.6568667 18.430803,6.4954938 17.508459,6.4727668 c 0,0 1.312077,-0.4815863 1.312077,-0.4815863 z"
       inkscape:connector-curvature="0" />
    <path
       style="fill:#916f6f;stroke-width:0.02732191"
       id="path46"
       d="m 24.165731,15.789903 c 0.755528,-0.08916 1.441467,-0.275996 2.126164,-0.45396 0.191786,-0.05436 0.774275,-0.210456 0.575359,-0.163083 -0.231589,0.05516 -0.469203,0.264375 -0.67359,0.186476 -0.197521,-0.07529 0.416772,-0.134981 0.618171,-0.207598 0.586949,-0.211626 1.124581,-0.44882 1.649169,-0.697742 0.865156,-0.460783 1.354541,-1.047051 1.71926,-1.645573 0.205287,-0.382239 0.296011,-0.775668 0.402517,-1.166828 0.06086,-0.223524 0.130795,-0.446397 0.194961,-0.66969 0.166318,-0.593007 0.341834,-1.1852868 0.50618,-1.7784485 0.130716,-0.384914 0.321152,-0.7650516 0.571356,-1.1345682 0.605192,-0.7193389 2.095811,-0.6701213 3.308225,-0.6511896 0.282766,0.013057 0.567405,0.018197 0.848297,0.039172 0.334212,0.024961 0.663846,0.06371 0.994614,0.098456 1.11798,0.1174476 2.222276,0.2627467 3.317042,0.4261969 0.159002,0.028105 0.318004,0.056237 0.477007,0.084354 0,0 -1.286624,0.4377763 -1.286624,0.4377763 v 0 C 39.364508,8.4638814 39.215184,8.43407 39.065856,8.4042808 37.68538,8.1729497 36.256395,7.9670802 34.807762,7.8817189 c -0.286449,-0.016893 -0.575661,-0.018181 -0.863493,-0.027272 -0.471708,0.00341 -0.81549,-0.00485 -1.270505,0.032348 -0.114828,0.00939 -0.430786,0.079513 -0.33785,0.044173 0.37064,-0.1409507 0.791329,-0.2447283 1.186992,-0.3670924 -0.03973,0.020529 -0.08593,0.03829 -0.119193,0.061563 -0.04128,0.028901 -0.0683,0.062351 -0.102448,0.093524 -0.29083,0.3630546 -0.47528,0.745783 -0.625665,1.1292875 -0.186811,0.5946244 -0.367695,1.189635 -0.536676,1.785608 -0.0048,0.01678 -0.184335,0.646755 -0.189227,0.666085 -0.09991,0.394648 -0.176851,0.79209 -0.38377,1.1776 -0.366369,0.608018 -0.845232,1.209233 -1.70389,1.685523 -0.524448,0.252962 -1.064445,0.49516 -1.650836,0.711786 -0.750629,0.277308 -1.822619,0.573274 -2.524531,0.779537 -0.19442,0.05713 -0.393264,0.110341 -0.589896,0.165509 -0.716229,0.185018 -1.436034,0.372483 -2.222949,0.469053 0,0 1.291901,-0.499057 1.291901,-0.499057 z"
       inkscape:connector-curvature="0" />
    <path
       style="fill:#916f6f;stroke-width:0.02732191"
       id="path50"
       d="m 25.080722,15.922881 c 0.768802,0.01803 1.537344,0.03795 2.306805,0.04874 0.550392,-0.0026 1.053154,0.08312 1.545558,0.197297 0.459109,0.10923 0.903577,0.226176 1.299657,0.387164 0.295302,0.147478 0.446464,0.303932 0.332366,0.516986 -0.03069,0.05731 -0.08175,0.111316 -0.12262,0.166973 -0.0674,0.06503 -0.128957,0.13169 -0.202179,0.195094 -0.184808,0.160019 -0.50767,0.396667 -0.708888,0.540648 -0.532971,0.381368 -1.094281,0.752775 -1.64733,1.126689 -1.515556,1.007018 -2.856237,2.076687 -4.203726,3.14182 -0.967542,0.793169 -1.879205,1.608715 -2.555396,2.477082 -0.32754,0.427352 -0.414648,0.879196 -0.421025,1.333198 0.01644,0.476385 0.279105,0.885772 0.67233,1.312768 0.161391,0.163476 0.342447,0.318904 0.559452,0.464654 0,0 -1.37165,0.407978 -1.37165,0.407978 v 0 c -0.200139,-0.156287 -0.382564,-0.317407 -0.544089,-0.484933 -0.408841,-0.440981 -0.673026,-0.850504 -0.707424,-1.342154 -0.0099,-0.466452 0.07796,-0.931258 0.427865,-1.368045 0.711959,-0.883374 1.683066,-1.706992 2.668901,-2.518069 1.336287,-1.059251 2.660481,-2.124707 4.143,-3.133862 0.857135,-0.590677 1.762935,-1.171074 2.455011,-1.816686 0.208566,-0.258013 0.287358,-0.380303 -0.133915,-0.588916 -0.385689,-0.15578 -0.821587,-0.268106 -1.269742,-0.371584 -0.478935,-0.10085 -0.964829,-0.179707 -1.491044,-0.179567 -0.780687,-0.01648 -1.562547,-0.04133 -2.343992,-0.03167 0,0 1.312075,-0.48159 1.312075,-0.48159 z"
       inkscape:connector-curvature="0" />
    <path
       style="fill:#916f6f;stroke-width:0.02732191"
       id="path78"
       d="m 32.231575,30.099854 c 0.09129,-0.01 0.184314,-0.01652 0.273861,-0.02992 0.131824,-0.01973 0.259302,-0.04624 0.388981,-0.06932 0.767114,-0.136504 1.521053,-0.288727 2.280319,-0.435821 0.956638,-0.176821 1.888807,-0.383365 2.813671,-0.598318 0.453296,-0.125996 0.925487,-0.224179 1.424769,-0.29092 0.846167,-0.08156 1.679075,-0.194449 2.518477,-0.292614 1.264132,-0.182847 2.520825,-0.376857 3.770305,-0.583434 0.158421,-0.02773 0.316546,-0.0559 0.475274,-0.08319 0.142766,-0.02454 0.288912,-0.04433 0.429191,-0.07229 0.438589,-0.08742 0.838542,-0.222222 1.247689,-0.338878 0.36128,-0.100421 1.465338,-0.408125 -0.861971,0.251096 -0.08699,0.02466 0.172151,-0.05093 0.256013,-0.0782 0.286397,-0.0931 0.561605,-0.190643 0.854642,-0.278803 1.098202,-0.328946 2.157217,-0.689724 3.240583,-1.031007 1.279117,-0.389137 2.48987,-0.829833 3.622097,-1.32093 0.638144,-0.287616 1.250845,-0.591423 1.807991,-0.91961 0.367597,-0.216537 0.514738,-0.32286 0.867692,-0.558203 1.0937,-0.747331 2.248519,-1.470664 3.299173,-2.233923 0.843931,-0.679884 1.602174,-1.393194 2.209209,-2.135743 0.124349,-0.152109 0.232314,-0.307506 0.348467,-0.461259 0.742731,-1.083918 1.389751,-2.184877 1.998414,-3.289795 0.51482,-0.892824 0.948417,-1.796216 1.362606,-2.701945 0.225498,-0.526165 0.385239,-1.058907 0.560873,-1.589825 0.161127,-0.494794 0.249807,-0.9935566 0.294983,-1.4941493 0.101856,-0.4767219 0.227447,-0.9517816 0.298236,-1.4300676 0.01899,-0.2403913 0.04912,-0.4802939 0.119254,-0.7183738 0.121252,-0.3642989 0.05343,-0.2972148 1.528616,-0.4257121 0.09991,-0.0087 0.01048,0.1023117 0.01581,0.1534637 0.02942,0.2809758 0.01536,0.1147052 0.03574,0.4424324 0.148905,0.7487791 0.25073,1.499145 0.319312,2.2508027 0.06908,0.810361 0.06463,1.621491 0.06127,2.432382 -0.008,0.890688 -0.0038,1.781387 0.006,2.672064 0.0088,0.575314 0.03661,1.15012 -0.0039,1.725208 -0.04938,0.537895 -0.06944,1.076182 -0.08001,1.614577 -0.01478,0.558788 -0.01319,1.117027 0.05595,1.67489 0.01684,0.07944 0.03375,0.158878 0.05051,0.238319 0.03885,0.184159 0.05171,0.285736 0.121338,0.46667 0.08928,0.232013 0.218784,0.462003 0.331319,0.691312 0.274106,0.539598 0.577796,1.076463 0.941402,1.602547 0.304603,0.448325 0.743688,0.866632 1.149477,1.292317 0.341785,0.326848 0.569284,0.67688 0.78095,1.029301 0.197847,0.379662 0.431431,0.755518 0.587213,1.140322 0.113829,0.341661 0.245202,0.681596 0.325426,1.025832 0.02747,0.277394 0.113619,0.548319 0.243935,0.817558 0.169106,0.365588 0.490704,0.159034 -1.342192,0.470533 -0.06784,0.01156 0.03319,-0.0705 0.04148,-0.106411 0.03435,-0.148768 0.03018,-0.299915 0.03525,-0.449158 -0.0461,-0.86923 -0.527846,-1.705999 -1.065028,-2.525098 -0.366847,-0.499903 -0.772473,-1.002332 -1.391685,-1.437606 -0.340381,-0.19727 -0.7918,-0.313639 -1.252974,-0.4224 -0.629533,-0.14847 -0.480959,-0.112819 -1.149959,-0.250505 -0.851272,-0.14046 -1.680781,-0.31606 -2.542597,-0.440299 -0.467852,-0.06745 -0.839637,-0.105206 -1.313934,-0.158182 -1.169119,-0.141385 -2.331291,-0.297964 -3.488589,-0.462206 -0.704582,-0.09243 -1.408692,-0.185958 -2.129897,-0.238573 -0.443128,-0.02735 -0.890886,-0.02439 -1.336511,-0.02784 -1.647371,-0.01473 -3.295045,-0.01329 -4.942095,-0.035 -0.388905,-0.0065 -0.777807,-0.01299 -1.166712,-0.01954 -0.282274,-0.0048 -2.321981,-0.03866 -2.581397,-0.04605 -1.362414,-0.03878 -2.721975,-0.116159 -4.080739,-0.178063 -2.51613,-0.141202 -5.042592,-0.220903 -7.570466,-0.282901 -1.516541,-0.03625 -3.0345,-0.04865 -4.552513,-0.05211 -0.47139,-0.0095 -0.940586,0.0049 -1.409389,0.02693 0,0 1.261681,-0.470558 1.261681,-0.470558 v 0 c 0.464498,-0.0139 0.929083,-0.0214 1.394534,-0.01295 1.48955,0.0131 2.978517,0.04106 4.465497,0.08781 2.514304,0.0756 5.028685,0.154932 7.531975,0.29989 1.360694,0.06094 2.722313,0.135731 4.086925,0.171132 0.584482,0.01515 2.01126,0.02943 2.604652,0.03719 0.39095,0.0051 0.781859,0.0111 1.17279,0.01667 1.68895,0.01671 3.377338,0.0026 5.066226,-0.01242 0.456033,-0.0023 0.915858,-0.0088 1.366605,0.03303 0.708075,0.06707 1.399768,0.168283 2.095632,0.261444 1.147025,0.166082 2.294751,0.33227 3.457818,0.467706 0.49626,0.05725 0.830743,0.09217 1.321158,0.163556 0.865004,0.125914 1.695327,0.304257 2.551032,0.444469 0.882095,0.176591 1.854288,0.326519 2.505082,0.694429 0.599345,0.453689 0.961562,0.973129 1.320848,1.48413 0.509418,0.82631 1.021829,1.660174 1.149812,2.528363 0.03134,0.413916 0.01359,0.104659 0.02152,0.442779 0.0012,0.04021 0.07003,0.09726 0.0052,0.120622 -1.404634,0.506342 -1.384052,0.660759 -1.549894,0.261103 -0.119477,-0.273822 -0.22072,-0.548133 -0.240183,-0.829372 -0.06985,-0.343485 -0.192824,-0.682071 -0.308793,-1.022103 -0.152506,-0.383081 -0.37166,-0.758431 -0.569206,-1.136033 -0.219957,-0.346925 -0.455319,-0.691129 -0.778238,-1.0177 -0.390793,-0.432636 -0.822405,-0.856806 -1.125766,-1.308181 -0.366519,-0.527769 -0.669094,-1.065986 -0.958633,-1.605673 -0.118058,-0.230716 -0.255009,-0.461733 -0.344679,-0.695874 -0.06521,-0.170276 -0.08818,-0.298708 -0.122213,-0.471434 -0.01597,-0.08105 -0.03,-0.162197 -0.045,-0.243293 -0.0635,-0.559943 -0.07293,-1.12069 -0.05405,-1.681436 0.0091,-0.537637 0.01678,-1.075508 0.06299,-1.612725 0.04603,-0.578583 0.05285,-1.157507 0.06077,-1.736529 0.01184,-0.891847 0.01962,-1.783728 0.0085,-2.675587 -0.01011,-0.808796 -0.01873,-1.617801 -0.07129,-2.426231 -0.06303,-0.7479111 -0.163464,-1.4948304 -0.371349,-2.2365413 -0.03619,-0.24641 -0.02817,-0.2112898 -0.06977,-0.4315285 -0.0088,-0.046488 -0.09828,-0.1092531 -0.02766,-0.1393974 0.426256,-0.1819997 0.932391,-0.3105083 1.41436,-0.4526745 0.0807,-0.023803 -0.289184,0.2067197 -0.07326,0.136711 -0.08419,0.2381739 -0.120574,0.479942 -0.157687,0.7209128 -0.08725,0.4790931 -0.221128,0.955145 -0.323643,1.433382 -0.04989,0.5022969 -0.112695,1.0046999 -0.282371,1.5010919 -0.173051,0.537062 -0.354681,1.074365 -0.596013,1.604718 -0.453428,0.911306 -0.90862,1.8225 -1.438999,2.723442 -0.618842,1.100966 -1.240986,2.202725 -1.960985,3.287995 -0.11558,0.155106 -0.222584,0.311911 -0.346763,0.465309 -0.249737,0.308514 -0.54562,0.614616 -0.836125,0.913585 -0.408885,0.420799 -0.835237,0.837542 -1.342949,1.230718 -1.0446,0.76171 -2.208115,1.477691 -3.275257,2.231143 -0.343046,0.240281 -0.47003,0.339605 -0.835718,0.55905 -0.556477,0.33393 -1.177467,0.639744 -1.817504,0.932221 -1.133246,0.498676 -2.347607,0.945149 -3.636695,1.336557 -1.05917,0.332699 -2.088154,0.688455 -3.15277,1.016385 -0.255992,0.0734 -0.347795,0.09574 -0.585562,0.178795 -0.08823,0.0308 -0.169643,0.06648 -0.258737,0.09665 -0.60325,0.204286 -1.251844,0.372153 -1.880321,0.556011 -0.07669,0.02242 -0.15512,0.04332 -0.23268,0.06498 -0.28552,0.08114 -0.567893,0.168484 -0.865713,0.237865 -0.35566,0.08286 -0.418868,0.08568 -0.79786,0.149332 -0.157275,0.0264 -0.314191,0.05336 -0.471287,0.08005 -1.248613,0.201832 -2.506851,0.387387 -3.764986,0.573568 -0.857965,0.105591 -1.711488,0.220528 -2.572986,0.318313 -0.480427,0.07503 -0.938879,0.174177 -1.386185,0.290716 -0.913428,0.207899 -1.835786,0.404985 -2.777703,0.578048 -1.002576,0.195859 -1.994736,0.41405 -3.032744,0.557834 0,0 1.283511,-0.49582 1.283511,-0.49582 z"
       inkscape:connector-curvature="0" />
    <path
       style="fill:#000080;stroke-width:0.02732191"
       id="path42-4"
       d="m 17.653317,4.9056734 c 0.908576,0.071848 1.768805,0.23044 2.610415,0.4123631 0.626068,0.1553625 1.260007,0.3319482 1.686048,0.6197215 0.268581,0.1814152 0.301366,0.2528523 0.487374,0.4643936 0.470309,0.7744469 0.741703,1.5791972 0.911435,2.3838463 0.05455,0.258595 0.09011,0.5181219 0.135156,0.7771835 0.199888,1.2914956 0.189425,2.6060546 -0.352495,3.8787896 -0.412992,0.96994 -0.810916,1.4112 -1.496128,2.358107 -1.832939,2.280673 -3.950323,4.499397 -5.860146,6.763316 -0.341391,0.404691 -0.664138,0.813328 -0.996205,1.219991 -1.023255,1.328342 -1.940743,2.685673 -2.41774,4.093662 -0.04339,0.260925 -0.189188,0.542444 -0.04811,0.802932 0.01816,0.03353 0.04797,0.06515 0.07198,0.09773 0.232968,0.176314 0.385726,0.211369 0.771889,0.131856 0.702366,-0.201884 -1.0488,0.301473 -1.094641,0.314291 -0.04914,0.01375 0.09382,-0.03129 0.139038,-0.04811 0.128051,-0.04769 0.236617,-0.10155 0.344676,-0.160106 0.194862,-0.102023 0.255346,-0.22813 0.290131,-0.364001 0.02327,-0.149992 0.02603,-0.30053 0.03096,-0.450879 0,0 1.417395,-0.364683 1.417395,-0.364683 v 0 c 0.0038,0.150432 0.01355,0.301113 -4.54e-4,0.451465 -0.01763,0.146701 -0.06054,0.292103 -0.246925,0.410853 -0.560095,0.333917 -1.353338,0.554457 -2.160126,0.708877 -0.458477,0.0411 -0.661317,-0.04199 -0.895255,-0.236343 -0.06986,-0.09741 -0.105913,-0.131894 -0.132685,-0.238175 -0.0608,-0.241376 0.08117,-0.485347 0.148422,-0.721511 0.64015,-1.438135 1.654541,-2.824177 2.750465,-4.187947 0.343746,-0.409808 0.679367,-0.821375 1.031247,-1.229417 1.939716,-2.249292 4.041395,-4.464077 5.817558,-6.748849 0.652235,-0.936327 1.029223,-1.370914 1.422138,-2.327293 C 22.5374,12.455286 22.544423,11.155995 22.288516,9.8784651 22.231997,9.6235051 22.18518,9.3679555 22.118946,9.1135982 21.913695,8.3253511 21.588525,7.5403341 21.095086,6.7850253 20.914158,6.5901984 20.867917,6.5124964 20.617683,6.3439361 20.204292,6.0654724 19.594011,5.894329 18.981009,5.7502589 18.138365,5.5713615 17.263636,5.4099874 16.341292,5.3872612 c 0,0 1.312074,-0.4815878 1.312074,-0.4815878 z"
       inkscape:connector-curvature="0" />
    <path
       style="fill:#000080;stroke-width:0.02732191"
       id="path46-4"
       d="m 22.998559,14.704399 c 0.755528,-0.08916 1.441466,-0.276001 2.126163,-0.453962 0.191787,-0.05436 0.774275,-0.210456 0.575359,-0.163082 -0.231589,0.05515 -0.469203,0.264375 -0.67359,0.186476 -0.197523,-0.07529 0.416773,-0.134985 0.618171,-0.2076 0.586949,-0.211628 1.124581,-0.448818 1.649169,-0.697739 0.865157,-0.460783 1.354541,-1.047052 1.71926,-1.645573 0.205287,-0.38224 0.29601,-0.775669 0.402518,-1.166825 0.06087,-0.223528 0.130794,-0.446405 0.194961,-0.6696944 0.166317,-0.5930068 0.341832,-1.1852899 0.506179,-1.7784482 0.130717,-0.3849177 0.321151,-0.765054 0.571357,-1.1345698 0.605192,-0.7193393 2.09581,-0.6701201 3.308225,-0.6511885 0.282765,0.013057 0.567403,0.018197 0.848296,0.039173 0.334212,0.024957 0.663849,0.063706 0.994614,0.098455 1.117979,0.1174484 2.222275,0.2627486 3.317044,0.4261965 0.159004,0.028116 0.318005,0.056237 0.477004,0.084356 0,0 -1.286623,0.4377746 -1.286623,0.4377746 v 0 C 38.197339,7.3783571 38.04801,7.3485662 37.898683,7.3187746 36.518206,7.0874414 35.089223,6.8815731 33.64059,6.796211 33.35414,6.779333 33.064926,6.778037 32.777096,6.76895 32.305389,6.77232 31.961605,6.76409 31.506591,6.801302 c -0.114828,0.0094 -0.430786,0.079515 -0.337849,0.044173 0.37064,-0.14095 0.791329,-0.2447287 1.186991,-0.3670909 -0.03973,0.020522 -0.08593,0.038291 -0.119193,0.061563 -0.04128,0.028889 -0.06829,0.062349 -0.102448,0.093522 -0.290829,0.3630565 -0.475279,0.7457811 -0.625666,1.1292908 -0.186809,0.5946203 -0.367691,1.1896305 -0.536673,1.7856073 -0.0048,0.016779 -0.184335,0.6467558 -0.189228,0.6660838 -0.09991,0.394649 -0.176848,0.792093 -0.383769,1.177598 -0.36637,0.608021 -0.845232,1.209236 -1.703891,1.685522 -0.524448,0.252967 -1.064443,0.495161 -1.650835,0.711792 -0.75063,0.277303 -1.822621,0.573269 -2.524529,0.779536 -0.194423,0.05714 -0.393267,0.110338 -0.589898,0.16551 -0.71623,0.185018 -1.436035,0.372483 -2.222948,0.469052 0,0 1.2919,-0.499058 1.2919,-0.499058 z"
       inkscape:connector-curvature="0" />
    <path
       style="fill:#000080;stroke-width:0.02732191"
       id="path50-9"
       d="m 23.91355,14.837376 c 0.768802,0.01803 1.537343,0.03795 2.306805,0.04874 0.550392,-0.0026 1.053154,0.08312 1.545557,0.197294 0.45911,0.109232 0.903577,0.22618 1.299657,0.387163 0.295303,0.147481 0.446463,0.303935 0.332367,0.51699 -0.03069,0.05731 -0.08175,0.111316 -0.12262,0.166973 -0.0674,0.06503 -0.128957,0.13169 -0.202179,0.195094 -0.184807,0.160018 -0.50767,0.396662 -0.708888,0.540648 -0.532969,0.381368 -1.09428,0.752771 -1.647329,1.126689 -1.515557,1.007018 -2.856238,2.076686 -4.203727,3.141821 -0.967541,0.793168 -1.879203,1.608714 -2.555395,2.477081 -0.327541,0.427352 -0.414649,0.879195 -0.421026,1.333195 0.01644,0.476388 0.279106,0.885778 0.67233,1.312771 0.161393,0.163476 0.342449,0.318903 0.559453,0.46465 0,0 -1.371651,0.407981 -1.371651,0.407981 v 0 c -0.200139,-0.156286 -0.382564,-0.317407 -0.544089,-0.484933 -0.408842,-0.44098 -0.673027,-0.850507 -0.707424,-1.342152 -0.0099,-0.466458 0.07796,-0.931263 0.427864,-1.368052 0.71196,-0.883369 1.683066,-1.706991 2.668903,-2.518063 1.336285,-1.059252 2.66048,-2.124708 4.142999,-3.133867 0.857134,-0.590673 1.762934,-1.171074 2.455011,-1.816685 0.208564,-0.258008 0.287357,-0.3803 -0.133916,-0.588917 -0.385689,-0.155775 -0.821585,-0.268102 -1.269742,-0.37158 -0.478935,-0.100854 -0.964829,-0.179712 -1.491044,-0.179567 -0.780686,-0.01648 -1.562546,-0.04133 -2.343992,-0.03167 0,0 1.312076,-0.481589 1.312076,-0.481589 z"
       inkscape:connector-curvature="0" />
    <path
       style="fill:#000080;stroke-width:0.02732191"
       id="path54-4"
       d="m 52.878,6.9308577 c -0.958952,-0.046672 -1.92441,-0.049245 -2.886981,-0.056592 -1.083289,0.00438 -2.169168,0.052399 -3.230814,0.1642474 -0.66529,0.070093 -0.939881,0.1185688 -1.589333,0.2158643 C 44.502747,7.3734173 43.850825,7.514217 43.224221,7.681292 43.061205,7.72476 42.578038,7.8606281 42.741372,7.8174664 43.667202,7.5728063 43.970125,7.454889 43.240008,7.7121851 42.255111,8.0714557 41.297637,8.4491688 40.367263,8.84367 c -0.682748,0.3134874 -1.374767,0.6422892 -1.85566,1.0453316 -0.276831,0.2320124 -0.31249,0.3162034 -0.496836,0.5672764 -0.217874,0.396054 -0.391914,0.811187 -0.288012,1.224229 0.01589,0.06315 0.04732,0.125053 0.07098,0.187581 0.200345,0.330219 0.595423,0.593723 1.138733,0.801437 0.183213,0.07005 0.380174,0.130409 0.570258,0.195617 1.92851,0.613528 4.113933,0.972393 6.258741,1.339565 1.061731,0.175408 2.139509,0.328427 3.230548,0.4502 0.79649,0.0889 1.603379,0.152402 2.407408,0.220756 0.942242,0.06525 1.85769,0.180075 2.717873,0.385773 0.693965,0.147083 1.293816,0.374755 1.897772,0.596469 0.738729,0.260936 0.866948,0.531362 0.986443,0.962178 0.02004,0.151452 0.07045,0.460099 0.04897,0.60714 -0.06579,0.45045 -0.353222,0.895219 -0.778684,1.290883 -0.179823,0.167229 -0.401558,0.322054 -0.602332,0.48308 -0.27877,0.161742 -0.539942,0.33167 -0.836297,0.485222 -0.669561,0.346916 -1.492413,0.686216 -2.254438,0.976262 -0.859533,0.327158 -1.799602,0.646907 -2.723734,0.924831 -0.856284,0.257516 -1.728707,0.501082 -2.593064,0.751623 -1.977949,0.559803 -4.022012,1.055851 -6.030289,1.586427 -1.173841,0.31012 -1.659956,0.447821 -2.815312,0.766923 -1.496713,0.40419 -2.946893,0.849924 -4.413878,1.280453 -2.841449,0.833906 -1.74445,0.475476 -2.885401,0.852265 -1.786783,0.573409 -3.5726,1.165931 -5.150672,1.883272 -0.170044,0.0773 -0.329971,0.16009 -0.494958,0.240133 -0.281427,0.150367 -0.549107,0.308712 -0.733428,0.494884 -0.02912,0.02943 -0.05149,0.06047 -0.07321,0.09148 -0.0068,0.0097 0.0014,0.03784 -0.01196,0.03011 -0.03884,-0.02269 -0.05056,-0.05431 -0.07585,-0.08147 -1.950823,0.548485 -1.510186,0.585268 -1.25816,0.302772 0.119796,-0.134289 0.200917,-0.277148 0.288272,-0.417266 0,0 1.42894,-0.341895 1.42894,-0.341895 v 0 c -0.161083,0.290541 -0.02022,0.04326 -0.176952,0.301968 -0.01147,0.0189 -0.09818,0.181988 -0.131514,0.194154 -0.465007,0.169772 -0.961877,0.316075 -1.442821,0.474112 -0.03454,-0.02526 -0.08487,-0.04658 -0.10362,-0.07578 -0.0099,-0.01526 0.01418,-0.03137 0.02513,-0.04645 0.02576,-0.03538 0.05209,-0.07081 0.08482,-0.104705 0.194442,-0.201408 0.476473,-0.37154 0.784063,-0.531744 0.175763,-0.08384 0.346203,-0.170613 0.527282,-0.251512 1.626423,-0.726598 3.453206,-1.331687 5.277276,-1.921266 3.182741,-0.942209 6.354203,-1.895414 9.581088,-2.798654 1.226474,-0.337125 1.552298,-0.4303 2.799332,-0.758299 2.010096,-0.528708 4.051118,-1.027661 6.027375,-1.588926 1.063104,-0.287712 2.076739,-0.638752 3.040817,-1.004072 0.744779,-0.282215 1.556072,-0.617097 2.212715,-0.954175 0.289688,-0.148708 0.546407,-0.312931 0.819605,-0.469396 0.195701,-0.156227 0.41153,-0.30647 0.587096,-0.468688 0.414167,-0.382668 0.692627,-0.808134 0.745045,-1.245092 0.02021,-0.168419 -0.03729,-0.421216 -0.06809,-0.591188 C 55.501033,16.775983 55.387745,16.536842 54.68698,16.285042 54.090644,16.066639 53.497377,15.843176 52.811125,15.699687 51.968179,15.505726 51.07937,15.387828 50.164969,15.313345 49.375745,15.235885 48.58187,15.166826 47.79995,15.07159 46.722909,14.940412 45.661486,14.776522 44.610671,14.6 42.437885,14.224348 40.222428,13.870649 38.23498,13.276896 37.813799,13.13996 37.539809,13.065334 37.177601,12.897751 c -0.379008,-0.175355 -0.606259,-0.413841 -0.766702,-0.65596 -0.02452,-0.06582 -0.05699,-0.131003 -0.07359,-0.197453 -0.106468,-0.426447 0.07436,-0.851988 0.293285,-1.261746 0.172464,-0.247998 0.222213,-0.355922 0.485232,-0.586072 0.471732,-0.4127843 1.176992,-0.7449118 1.856804,-1.0677514 0.91185,-0.3947847 1.854418,-0.7703845 2.823152,-1.128996 1.403983,-0.5029031 2.921189,-0.9257496 4.553356,-1.204186 0.682139,-0.098648 0.897252,-0.137396 1.595362,-0.2075982 1.075222,-0.1081259 2.1718,-0.1542167 3.266961,-0.1606711 0.997036,0.00303 1.995315,-1.205e-4 2.991083,0.028617 0,0 -1.324516,0.4749311 -1.324516,0.4749311 z"
       inkscape:connector-curvature="0" />
    <path
       style="fill:#000080;stroke-width:0.02732191"
       id="path78-5"
       d="m 31.064403,29.014349 c 0.09129,-0.01 0.184312,-0.01652 0.273861,-0.02992 0.131822,-0.01973 0.2593,-0.04624 0.38898,-0.06931 0.767116,-0.1365 1.521052,-0.288727 2.280318,-0.435821 0.956639,-0.176817 1.888808,-0.383365 2.813672,-0.598318 0.453297,-0.125996 0.925488,-0.224179 1.42477,-0.290919 0.846169,-0.08156 1.679078,-0.19445 2.518476,-0.292614 1.264131,-0.182851 2.520823,-0.376857 3.770301,-0.583435 0.158425,-0.02773 0.316548,-0.05591 0.475273,-0.08319 0.142775,-0.02454 0.288918,-0.04433 0.429199,-0.07229 0.438585,-0.08743 0.838538,-0.222222 1.247688,-0.338878 0.361279,-0.100421 1.465332,-0.408125 -0.861977,0.251096 -0.08699,0.02462 0.172154,-0.05093 0.256017,-0.0782 0.286398,-0.0931 0.561604,-0.190642 0.854638,-0.278803 1.098207,-0.328949 2.157219,-0.689719 3.240586,-1.031005 1.279122,-0.389142 2.489871,-0.829834 3.622099,-1.320931 0.638142,-0.287621 1.250846,-0.591423 1.807994,-0.919615 0.367592,-0.216532 0.514735,-0.322859 0.867689,-0.558198 1.093702,-0.747331 2.248517,-1.470667 3.299173,-2.233923 0.843929,-0.679884 1.602177,-1.393198 2.209207,-2.135743 0.124345,-0.152109 0.232311,-0.307507 0.348468,-0.46126 0.742721,-1.083918 1.38976,-2.184876 1.998409,-3.289794 0.514826,-0.892824 0.948428,-1.796216 1.362609,-2.701946 0.225503,-0.526164 0.385239,-1.058907 0.560867,-1.5898246 0.161134,-0.4947938 0.249811,-0.9935563 0.294993,-1.494149 0.101857,-0.4767222 0.227442,-0.9517813 0.298234,-1.4300688 0.01895,-0.2403927 0.04912,-0.4802935 0.119254,-0.7183746 0.121252,-0.3642977 0.05341,-0.2972135 1.528613,-0.4257108 0.09992,-0.00869 0.01048,0.1023105 0.01584,0.1534636 0.02942,0.2809746 0.01536,0.1147042 0.03574,0.4424354 0.148902,0.7487776 0.250733,1.4991429 0.319311,2.2508006 0.06909,0.8103606 0.06463,1.6214902 0.06127,2.4323782 -0.008,0.890692 -0.0038,1.781387 0.006,2.672068 0.0088,0.57531 0.03661,1.15012 -0.0039,1.725208 -0.04938,0.537894 -0.06944,1.076182 -0.08001,1.614573 -0.01478,0.558791 -0.01319,1.117031 0.05595,1.674894 0.01684,0.07944 0.03375,0.158874 0.0505,0.238319 0.03885,0.184158 0.05172,0.285732 0.121338,0.46667 0.08928,0.232013 0.218785,0.462003 0.331326,0.691311 0.274098,0.539599 0.57779,1.076464 0.941397,1.602547 0.304608,0.448322 0.74369,0.866633 1.149476,1.292313 0.341789,0.326853 0.569288,0.676885 0.780954,1.029306 0.197841,0.379661 0.431426,0.755514 0.587209,1.140322 0.113829,0.341658 0.245202,0.681591 0.325431,1.025832 0.02747,0.277397 0.113619,0.548319 0.24393,0.817557 0.169105,0.365589 0.490704,0.159034 -1.342193,0.470533 -0.06783,0.01152 0.03319,-0.0705 0.04149,-0.10641 0.03434,-0.148769 0.03018,-0.299916 0.03525,-0.449159 -0.0461,-0.86923 -0.52784,-1.705999 -1.065027,-2.525093 -0.366841,-0.499908 -0.772474,-1.002337 -1.39169,-1.43761 -0.340367,-0.197271 -0.791798,-0.313639 -1.252969,-0.422401 -0.629532,-0.148469 -0.480963,-0.112819 -1.149964,-0.250504 -0.851267,-0.140455 -1.680778,-0.316061 -2.542594,-0.440299 -0.467852,-0.06744 -0.839636,-0.105205 -1.313932,-0.158182 -1.16912,-0.141386 -2.331288,-0.297969 -3.488591,-0.462207 -0.704575,-0.09243 -1.40869,-0.185953 -2.129888,-0.238573 -0.443133,-0.02735 -0.89089,-0.02439 -1.336516,-0.02784 -1.647373,-0.01473 -3.295049,-0.01329 -4.942094,-0.035 -0.388902,-0.0065 -0.777809,-0.01299 -1.166715,-0.01958 -0.28227,-0.0048 -2.321983,-0.03866 -2.581399,-0.04604 -1.362412,-0.03878 -2.721975,-0.116159 -4.080734,-0.178063 -2.516135,-0.141205 -5.042595,-0.220903 -7.570467,-0.282902 -1.516543,-0.03625 -3.034502,-0.04865 -4.552516,-0.05212 -0.471388,-0.0095 -0.940587,0.0048 -1.40939,0.02693 0,0 1.261682,-0.470559 1.261682,-0.470559 v 0 c 0.464498,-0.0139 0.929082,-0.02137 1.394535,-0.01295 1.489549,0.0131 2.978515,0.04106 4.465496,0.08782 2.514302,0.0756 5.028689,0.154931 7.531974,0.299885 1.360699,0.06094 2.722318,0.135732 4.086928,0.171132 0.584484,0.01515 2.011258,0.02943 2.60465,0.03723 0.390954,0.0051 0.781858,0.0111 1.172789,0.01667 1.688955,0.01671 3.377344,0.0026 5.066232,-0.01242 0.456028,-0.0023 0.915857,-0.0089 1.3666,0.03299 0.708075,0.06706 1.399773,0.16828 2.095631,0.261444 1.147028,0.166083 2.294747,0.332271 3.457821,0.467707 0.496258,0.05725 0.830745,0.09217 1.321158,0.163556 0.865005,0.125914 1.695329,0.304257 2.551036,0.444466 0.882089,0.176589 1.85428,0.326521 2.505075,0.694432 0.599343,0.453684 0.961564,0.973125 1.32085,1.48413 0.509413,0.826311 1.021828,1.660174 1.149815,2.528366 0.03134,0.413913 0.01359,0.104653 0.02148,0.442772 0.0012,0.04022 0.07003,0.09727 0.0052,0.120626 -1.404628,0.506342 -1.38405,0.660762 -1.549891,0.261102 -0.119488,-0.273822 -0.220724,-0.548133 -0.240189,-0.829375 -0.06988,-0.343483 -0.192859,-0.682069 -0.308826,-1.022103 -0.152508,-0.383081 -0.371667,-0.758427 -0.569206,-1.136028 -0.219964,-0.346929 -0.455326,-0.691132 -0.778241,-1.017702 -0.390796,-0.43264 -0.822407,-0.856811 -1.12577,-1.308181 -0.366513,-0.52777 -0.669096,-1.065986 -0.95863,-1.605673 -0.118059,-0.230717 -0.255009,-0.461733 -0.34468,-0.695875 -0.06521,-0.170276 -0.08818,-0.298707 -0.122213,-0.471438 -0.01597,-0.08105 -0.03,-0.162193 -0.04502,-0.243288 -0.0635,-0.559948 -0.07293,-1.120686 -0.05405,-1.681436 0.0091,-0.537637 0.01679,-1.075513 0.06299,-1.61273 0.04603,-0.578578 0.05285,-1.157502 0.06077,-1.736525 0.01184,-0.891847 0.01962,-1.783729 0.0085,-2.675591 -0.01011,-0.808792 -0.01878,-1.6177968 -0.07129,-2.4262263 -0.06302,-0.7479159 -0.163455,-1.4948315 -0.371347,-2.236544 -0.03618,-0.2464081 -0.02817,-0.2112902 -0.06976,-0.4315278 -0.0088,-0.046486 -0.09828,-0.1092542 -0.02766,-0.1393974 0.426252,-0.1820007 0.932399,-0.3105082 1.414357,-0.4526744 0.08071,-0.023806 -0.289182,0.2067186 -0.07326,0.136711 -0.08419,0.2381739 -0.120574,0.479942 -0.157687,0.7209128 -0.08725,0.479092 -0.221124,0.9551454 -0.323644,1.4333787 -0.04989,0.5023011 -0.112695,1.0047042 -0.28237,1.5010959 -0.173046,0.5370575 -0.354681,1.0743655 -0.596009,1.6047185 -0.45343,0.911305 -0.908619,1.8225 -1.439,2.723442 -0.61884,1.100967 -1.240985,2.202721 -1.960986,3.287994 -0.115579,0.155106 -0.222586,0.311913 -0.34676,0.465314 -0.249742,0.30851 -0.545625,0.614612 -0.836133,0.913581 -0.408883,0.4208 -0.835226,0.837542 -1.342947,1.230717 -1.044599,0.76171 -2.208114,1.47769 -3.275257,2.231144 -0.343045,0.240278 -0.470029,0.339605 -0.83572,0.55905 -0.556473,0.33393 -1.177466,0.63974 -1.817502,0.93222 -1.133249,0.498676 -2.347604,0.94515 -3.636695,1.336555 -1.059167,0.332703 -2.088159,0.688459 -3.152775,1.016385 -0.255992,0.0734 -0.347794,0.09574 -0.58556,0.178798 -0.08823,0.03083 -0.169636,0.06648 -0.258734,0.09665 -0.603251,0.204289 -1.251846,0.372156 -1.880325,0.556015 -0.07669,0.02242 -0.155116,0.04331 -0.232675,0.06498 -0.285524,0.08114 -0.567896,0.16848 -0.865717,0.237865 -0.355658,0.08285 -0.418865,0.08568 -0.797861,0.149329 -0.15727,0.0264 -0.314188,0.05337 -0.471282,0.08005 -1.248612,0.201828 -2.506852,0.387387 -3.764985,0.573568 -0.857966,0.105592 -1.711489,0.220528 -2.572989,0.318313 -0.480428,0.07503 -0.938877,0.174178 -1.386184,0.290712 -0.913429,0.207904 -1.835789,0.404985 -2.777703,0.578053 -1.002576,0.195858 -1.994736,0.414049 -3.032744,0.557829 0,0 1.283512,-0.495816 1.283512,-0.495816 z"
       inkscape:connector-curvature="0" />
    <path
       style="fill:#ff0000;stroke-width:0.02732191"
       id="path42-3"
       d="m 20.207361,5.6174834 c 0.908577,0.071847 1.768806,0.2304403 2.610416,0.4123627 0.626069,0.1553632 1.260007,0.331949 1.686048,0.6197215 0.268583,0.1814137 0.301367,0.2528535 0.487375,0.4643947 0.470309,0.7744458 0.741702,1.5791968 0.911435,2.3838491 0.05455,0.2585918 0.09011,0.5181186 0.135156,0.7771806 0.199887,1.291499 0.189424,2.606054 -0.352496,3.878789 -0.412991,0.96994 -0.810916,1.4112 -1.496128,2.358107 -1.832938,2.28067 -3.950321,4.499397 -5.860146,6.763318 -0.341389,0.404689 -0.664136,0.813326 -0.996204,1.21999 -1.023256,1.328342 -1.940744,2.685676 -2.417741,4.093661 -0.04339,0.260925 -0.18919,0.542444 -0.04811,0.802933 0.01816,0.03353 0.04799,0.06515 0.07198,0.09773 0.232968,0.176313 0.385725,0.211369 0.771888,0.131856 0.702365,-0.201885 -1.0488,0.301473 -1.094639,0.314291 -0.04915,0.01375 0.09382,-0.03129 0.139038,-0.04811 0.128049,-0.04769 0.236615,-0.101553 0.344674,-0.160109 0.194862,-0.102023 0.255347,-0.22813 0.290131,-0.363998 0.02327,-0.149995 0.02603,-0.300533 0.03096,-0.450881 0,0 1.417395,-0.364684 1.417395,-0.364684 v 0 c 0.0038,0.150432 0.01355,0.301117 -4.54e-4,0.451465 -0.01764,0.146701 -0.06055,0.292103 -0.246925,0.410853 -0.560092,0.33392 -1.353336,0.55446 -2.160123,0.708876 -0.458477,0.04111 -0.661318,-0.04198 -0.895253,-0.236338 -0.06986,-0.09741 -0.105913,-0.131894 -0.132688,-0.238175 -0.0608,-0.241377 0.08117,-0.485348 0.148425,-0.721508 0.64015,-1.438139 1.65454,-2.824177 2.750464,-4.187955 0.343747,-0.409802 0.679368,-0.821372 1.031248,-1.229413 1.939717,-2.249292 4.041395,-4.464077 5.817559,-6.748849 0.652235,-0.936326 1.029222,-1.370913 1.422137,-2.327293 0.518657,-1.26245 0.525681,-2.561741 0.269773,-3.839275 C 24.786037,10.335315 24.739221,10.079762 24.672989,9.8254052 24.467739,9.0371614 24.142571,8.2521447 23.649133,7.4968353 23.468203,7.302008 23.421963,7.2243044 23.171729,7.0557442 22.758339,6.7772809 22.148056,6.6061396 21.535054,6.4620704 20.69241,6.2831707 19.817681,6.1217989 18.895337,6.0990723 c 0,0 1.312075,-0.4815889 1.312075,-0.4815889 z"
       inkscape:connector-curvature="0" />
    <path
       style="fill:#ff0000;stroke-width:0.02732191"
       id="path46-6"
       d="m 25.552603,15.41621 c 0.755528,-0.08916 1.441467,-0.276001 2.126164,-0.453962 0.191787,-0.05436 0.774276,-0.210457 0.57536,-0.163083 -0.231589,0.05515 -0.469202,0.26438 -0.67359,0.186476 -0.197523,-0.07528 0.416771,-0.134981 0.618171,-0.2076 0.586948,-0.211627 1.124579,-0.448814 1.649168,-0.697739 0.865156,-0.460787 1.354542,-1.047051 1.719261,-1.645577 0.205289,-0.382236 0.29601,-0.775664 0.402517,-1.166825 0.06087,-0.223524 0.130796,-0.446396 0.194961,-0.669689 0.166319,-0.593011 0.341834,-1.185287 0.506181,-1.7784494 0.130716,-0.3849173 0.321149,-0.765055 0.571356,-1.1345677 0.60519,-0.7193409 2.095811,-0.6701218 3.308224,-0.6511912 0.282765,0.013056 0.567403,0.018197 0.848297,0.039173 0.33421,0.024961 0.663849,0.063708 0.994614,0.098456 1.11798,0.1174469 2.222274,0.2627471 3.317044,0.4261972 0.159001,0.028105 0.318004,0.056237 0.477003,0.084354 0,0 -1.286623,0.4377761 -1.286623,0.4377761 v 0 C 40.751384,8.0901866 40.602055,8.0603772 40.45273,8.0305861 39.072253,7.7992514 37.643268,7.5933819 36.194636,7.5080206 c -0.286452,-0.016893 -0.575664,-0.018181 -0.863493,-0.027272 -0.471709,0.00341 -0.815493,-0.00485 -1.270506,0.032348 -0.11484,0.00939 -0.430788,0.079517 -0.33785,0.044173 0.370639,-0.1409488 0.791328,-0.2447259 1.186992,-0.3670897 -0.03973,0.020522 -0.08593,0.038291 -0.119192,0.061565 -0.04128,0.028886 -0.06829,0.062347 -0.102449,0.09352 -0.290831,0.3630535 -0.475278,0.7457818 -0.625666,1.1292907 -0.186811,0.5946198 -0.367692,1.1896346 -0.536674,1.7856074 -0.0048,0.01678 -0.184333,0.646756 -0.189227,0.666084 -0.09991,0.394649 -0.176848,0.792089 -0.38377,1.177597 -0.366368,0.608022 -0.845231,1.209237 -1.703889,1.685519 -0.52445,0.252971 -1.064445,0.495165 -1.650837,0.711796 -0.750631,0.277303 -1.82262,0.573272 -2.52453,0.779535 -0.194422,0.05714 -0.393265,0.110338 -0.589897,0.165512 -0.71623,0.185016 -1.436035,0.372482 -2.222948,0.469051 0,0 1.291899,-0.499058 1.291899,-0.499058 z"
       inkscape:connector-curvature="0" />
    <path
       style="fill:#ff0000;stroke-width:0.02732191"
       id="path50-0"
       d="m 26.467595,15.549186 c 0.768802,0.01803 1.537343,0.03795 2.306805,0.04874 0.550392,-0.0026 1.053154,0.08312 1.545557,0.197302 0.45911,0.109228 0.903578,0.226176 1.29966,0.387163 0.295301,0.147477 0.446462,0.303932 0.332364,0.516986 -0.03069,0.05731 -0.08175,0.111316 -0.12262,0.166973 -0.06739,0.06503 -0.128955,0.13169 -0.20218,0.19509 -0.184805,0.160022 -0.507668,0.396667 -0.708888,0.540652 -0.532969,0.381372 -1.09428,0.752775 -1.64733,1.126688 -1.515555,1.007019 -2.856237,2.076683 -4.203725,3.141822 -0.967541,0.793167 -1.879204,1.608713 -2.555397,2.47708 -0.32754,0.427352 -0.414648,0.8792 -0.421023,1.333196 0.01644,0.476388 0.279104,0.885778 0.672328,1.312771 0.161392,0.163476 0.342448,0.318904 0.559453,0.46465 0,0 -1.371651,0.407981 -1.371651,0.407981 v 0 c -0.200138,-0.156283 -0.382561,-0.317408 -0.544087,-0.484934 -0.408842,-0.44098 -0.673027,-0.850507 -0.707423,-1.342153 -0.0099,-0.466452 0.07796,-0.931258 0.427863,-1.368049 0.711961,-0.883371 1.683066,-1.706993 2.668903,-2.518065 1.336287,-1.059256 2.660479,-2.124708 4.142999,-3.133862 0.857134,-0.590678 1.762935,-1.171079 2.455012,-1.816686 0.208564,-0.258012 0.287357,-0.380304 -0.133917,-0.58892 -0.385688,-0.155776 -0.821585,-0.268103 -1.26974,-0.371581 -0.478936,-0.100854 -0.964831,-0.179707 -1.491046,-0.179567 -0.780687,-0.01648 -1.562545,-0.04133 -2.343993,-0.03167 0,0 1.312077,-0.481586 1.312077,-0.481586 z"
       inkscape:connector-curvature="0" />
    <path
       style="fill:#ff0000;stroke-width:0.02732191"
       id="path54-8"
       d="m 55.432049,7.6426685 c -0.958951,-0.046673 -1.924411,-0.049245 -2.886985,-0.056593 -1.08329,0.0044 -2.169168,0.0524 -3.230813,0.1642494 -0.66529,0.070093 -0.939879,0.1185687 -1.589328,0.2158654 -0.668132,0.1190384 -1.320052,0.2598378 -1.946657,0.4269162 -0.163015,0.043467 -0.646182,0.1793326 -0.482848,0.1361706 0.925831,-0.2446598 1.228752,-0.3625809 0.498635,-0.1052849 -0.984896,0.3592747 -1.94237,0.7369876 -2.872742,1.1314888 -0.682752,0.3134873 -1.374769,0.642289 -1.855663,1.045327 -0.276829,0.232017 -0.312492,0.316208 -0.496834,0.567281 -0.217876,0.396054 -0.391916,0.811183 -0.288014,1.224228 0.01589,0.06315 0.04732,0.125053 0.07098,0.187582 0.200345,0.330215 0.595425,0.593723 1.138733,0.801437 0.183217,0.07004 0.380173,0.13041 0.57026,0.195616 1.928508,0.613528 4.113929,0.972394 6.258738,1.339566 1.061737,0.175408 2.13951,0.328427 3.23055,0.4502 0.796493,0.0889 1.603382,0.152404 2.407409,0.22076 0.942244,0.06525 1.857692,0.18007 2.717866,0.385769 0.693976,0.14708 1.293824,0.374759 1.897771,0.596469 0.738735,0.26094 0.866956,0.531361 0.986448,0.962178 0.02007,0.151455 0.07045,0.460102 0.04899,0.60714 -0.06579,0.45045 -0.353223,0.895218 -0.778687,1.290882 -0.179826,0.16723 -0.401564,0.322055 -0.602332,0.483081 -0.27877,0.161742 -0.539937,0.331669 -0.836301,0.485221 -0.669557,0.346916 -1.492407,0.686217 -2.254431,0.976262 -0.859533,0.327162 -1.799608,0.646903 -2.723738,0.924832 -0.856286,0.257515 -1.72871,0.501081 -2.593063,0.751624 -1.97795,0.559803 -4.022009,1.055849 -6.030288,1.586423 -1.173844,0.310124 -1.65996,0.447825 -2.815317,0.766926 -1.496709,0.404189 -2.946889,0.849926 -4.413877,1.280457 -2.841449,0.833906 -1.744447,0.475472 -2.885398,0.852261 -1.786784,0.573405 -3.572601,1.16593 -5.150673,1.883271 -0.170045,0.07729 -0.329973,0.16009 -0.494958,0.240134 -0.281428,0.150367 -0.549106,0.308711 -0.733428,0.494884 -0.02912,0.02943 -0.05149,0.06048 -0.07322,0.09148 -0.0068,0.0097 0.0014,0.03784 -0.01196,0.03011 -0.03884,-0.02269 -0.05056,-0.05431 -0.07585,-0.08147 -1.950823,0.548486 -1.510185,0.585269 -1.258161,0.302773 0.119809,-0.134288 0.200918,-0.277148 0.288274,-0.417266 0,0 1.42894,-0.341896 1.42894,-0.341896 v 0 c -0.161085,0.290538 -0.02022,0.04326 -0.176951,0.301969 -0.01147,0.0189 -0.09818,0.181988 -0.131514,0.194154 -0.465009,0.169772 -0.961879,0.316075 -1.442823,0.474109 -0.03454,-0.02526 -0.08487,-0.04658 -0.103619,-0.07578 -0.0099,-0.01526 0.01418,-0.03136 0.02514,-0.04645 0.02576,-0.03542 0.05209,-0.07081 0.08482,-0.104702 0.19444,-0.201411 0.476473,-0.371543 0.78406,-0.531747 0.175763,-0.08384 0.346204,-0.170613 0.527283,-0.251512 1.626425,-0.726602 3.453205,-1.331692 5.277276,-1.921266 3.182743,-0.94221 6.354205,-1.895415 9.581088,-2.798655 1.226474,-0.33712 1.552298,-0.430299 2.799332,-0.758302 2.010092,-0.528705 4.051117,-1.027658 6.027374,-1.588923 1.063103,-0.287716 2.076742,-0.638752 3.040816,-1.004068 0.74478,-0.282219 1.55607,-0.617104 2.212715,-0.954182 0.289685,-0.1487 0.546405,-0.312927 0.819603,-0.469393 0.195702,-0.15623 0.411526,-0.306468 0.587099,-0.468688 0.414165,-0.382668 0.692622,-0.808133 0.745044,-1.245091 0.0202,-0.16842 -0.03729,-0.421219 -0.06809,-0.591185 C 58.055088,17.487788 57.941798,17.24865 57.241029,16.99685 56.644703,16.778447 56.051432,16.554984 55.365184,16.411496 54.522235,16.217535 53.633425,16.09964 52.71902,16.02515 51.929798,15.94769 51.135919,15.878631 50.354003,15.783398 49.276965,15.65222 48.215545,15.488331 47.164727,15.311808 44.99194,14.93616 42.776485,14.582461 40.789035,13.988704 c -0.421179,-0.136936 -0.69517,-0.211562 -1.057378,-0.379145 -0.379005,-0.175355 -0.606258,-0.413841 -0.7667,-0.655956 -0.02452,-0.06582 -0.057,-0.131007 -0.07358,-0.197457 -0.106481,-0.426446 0.07436,-0.851988 0.293281,-1.261746 0.172467,-0.247993 0.222214,-0.355922 0.485231,-0.586075 0.471734,-0.412777 1.176992,-0.744908 1.856809,-1.0677437 0.911847,-0.3947887 1.854417,-0.7703925 2.823151,-1.1289999 1.403975,-0.5029069 2.92119,-0.9257516 4.553352,-1.2041873 0.682138,-0.098648 0.897249,-0.137397 1.595359,-0.2075978 1.07522,-0.1081232 2.171804,-0.1542155 3.266965,-0.1606699 0.997035,0.00303 1.995311,-1.204e-4 2.99108,0.028617 0,0 -1.324511,0.4749315 -1.324511,0.4749315 z"
       inkscape:connector-curvature="0" />
    <path
       style="fill:#ff0000;stroke-width:0.02732191"
       id="path78-8"
       d="m 33.618449,29.726159 c 0.09129,-0.01 0.184313,-0.01652 0.27386,-0.02992 0.131822,-0.01973 0.2593,-0.04624 0.38898,-0.06932 0.767116,-0.1365 1.521052,-0.288727 2.28032,-0.435822 0.956638,-0.176817 1.88881,-0.383364 2.813671,-0.598317 0.453294,-0.125996 0.925487,-0.224179 1.424769,-0.29092 0.846165,-0.08156 1.679078,-0.19445 2.518479,-0.292613 1.264128,-0.182852 2.520821,-0.376858 3.770302,-0.583435 0.158424,-0.02773 0.316546,-0.0559 0.475272,-0.08319 0.142767,-0.02454 0.288915,-0.04433 0.429195,-0.07229 0.438588,-0.08743 0.838539,-0.222218 1.24769,-0.338877 0.361279,-0.100418 1.465332,-0.408126 -0.861973,0.251099 -0.08699,0.02462 0.172151,-0.05093 0.256012,-0.0782 0.286397,-0.0931 0.561606,-0.190643 0.85464,-0.278804 1.098201,-0.328949 2.157222,-0.689719 3.240581,-1.031006 1.279125,-0.389139 2.489873,-0.829832 3.6221,-1.320932 0.638146,-0.287618 1.250852,-0.591417 1.80799,-0.919612 0.367594,-0.216536 0.514736,-0.322855 0.867698,-0.558197 1.093697,-0.747332 2.248516,-1.470668 3.29917,-2.233925 0.843928,-0.679883 1.602178,-1.393193 2.209211,-2.135741 0.124341,-0.152109 0.232312,-0.307511 0.348466,-0.461261 0.742727,-1.083917 1.389758,-2.184876 1.998407,-3.289797 0.514826,-0.892821 0.94843,-1.796213 1.36261,-2.701942 0.225498,-0.526168 0.385238,-1.058908 0.56087,-1.589825 0.161125,-0.494794 0.249809,-0.9935569 0.294986,-1.4941535 0.101856,-0.4767179 0.227448,-0.9517771 0.298239,-1.4300635 0.01899,-0.240395 0.04912,-0.4802954 0.119254,-0.7183764 0.121251,-0.3642966 0.05342,-0.2972136 1.528613,-0.4257108 0.09992,-0.00869 0.01048,0.1023101 0.01582,0.1534636 0.02942,0.2809769 0.01536,0.1147037 0.03574,0.442435 0.148906,0.7487779 0.250732,1.4991403 0.319313,2.250802 0.06907,0.8103566 0.06463,1.6214866 0.06127,2.4323816 -0.008,0.890688 -0.0038,1.781384 0.006,2.672064 0.0088,0.57531 0.03661,1.150121 -0.0039,1.725208 -0.04938,0.537894 -0.06944,1.076182 -0.08001,1.614577 -0.01478,0.558787 -0.01319,1.117027 0.05597,1.67489 0.01683,0.07944 0.03375,0.158876 0.05052,0.23832 0.03885,0.184154 0.05171,0.285734 0.121338,0.46667 0.08928,0.232008 0.218786,0.462002 0.331329,0.69131 0.274096,0.539599 0.577789,1.076464 0.941392,1.602548 0.304611,0.448325 0.743688,0.866632 1.149478,1.292318 0.341794,0.326842 0.569279,0.676883 0.780952,1.029301 0.197847,0.379656 0.431429,0.755513 0.587206,1.140316 0.113829,0.341662 0.245202,0.681599 0.325435,1.025836 0.02747,0.277398 0.113619,0.548319 0.243925,0.817558 0.169108,0.365592 0.490708,0.159033 -1.342191,0.470533 -0.06783,0.01152 0.03319,-0.0705 0.04149,-0.106415 0.03434,-0.148764 0.03018,-0.299908 0.03525,-0.449154 -0.0461,-0.869234 -0.52785,-1.705999 -1.065034,-2.525093 -0.366843,-0.499911 -0.77247,-1.002337 -1.391688,-1.437609 -0.340371,-0.197272 -0.791799,-0.313639 -1.252965,-0.422402 -0.629537,-0.148469 -0.480968,-0.112819 -1.149965,-0.250504 -0.851268,-0.140458 -1.680786,-0.31606 -2.542602,-0.440299 -0.467847,-0.06744 -0.839636,-0.105205 -1.313927,-0.158185 -1.169125,-0.141383 -2.331288,-0.297966 -3.488587,-0.4622 -0.704583,-0.09243 -1.40869,-0.185961 -2.129896,-0.23858 -0.44313,-0.02735 -0.890892,-0.02439 -1.336516,-0.02784 -1.64737,-0.01473 -3.295042,-0.01329 -4.942088,-0.035 -0.388907,-0.0065 -0.777813,-0.01299 -1.166714,-0.01958 -0.282274,-0.0048 -2.321984,-0.03866 -2.5814,-0.04605 -1.362411,-0.03877 -2.721975,-0.116156 -4.080733,-0.178059 -2.516132,-0.141205 -5.042598,-0.220904 -7.570469,-0.282902 -1.516544,-0.03625 -3.034501,-0.04865 -4.552514,-0.05211 -0.471388,-0.0095 -0.940587,0.0049 -1.409392,0.02693 0,0 1.261685,-0.470564 1.261685,-0.470564 v 0 c 0.464497,-0.0139 0.929082,-0.02137 1.394533,-0.01295 1.489552,0.0131 2.978516,0.04106 4.465496,0.08782 2.514302,0.0756 5.028687,0.154927 7.531974,0.299888 1.3607,0.06094 2.722317,0.135732 4.086928,0.171133 0.584481,0.01515 2.011259,0.02943 2.604645,0.03719 0.390954,0.0051 0.781863,0.0111 1.172795,0.01667 1.688953,0.0167 3.377346,0.0026 5.066233,-0.01242 0.456023,-0.0023 0.915852,-0.0089 1.366599,0.03299 0.708071,0.06706 1.399765,0.168283 2.095633,0.261446 1.147015,0.166084 2.294741,0.332272 3.457815,0.467709 0.496257,0.05724 0.830742,0.09217 1.321153,0.163556 0.865011,0.125909 1.695334,0.304256 2.551038,0.444464 0.882092,0.176591 1.854283,0.326523 2.505079,0.694433 0.599339,0.453685 0.961569,0.973121 1.320854,1.484126 0.509412,0.826315 1.021827,1.660177 1.149814,2.528373 0.03134,0.413913 0.01359,0.104653 0.02148,0.442776 0.0012,0.04021 0.07005,0.09726 0.0052,0.120622 -1.404629,0.506342 -1.384053,0.660758 -1.549892,0.261102 -0.119489,-0.273822 -0.220723,-0.548133 -0.240189,-0.829375 -0.0699,-0.343483 -0.192866,-0.682069 -0.308828,-1.022105 C 73.87724,25.93429 73.658077,25.558943 73.46054,25.181339 73.240581,24.834413 73.00521,24.490207 72.6823,24.163641 72.2915,23.731 71.859893,23.30683 71.556531,22.85546 c -0.366519,-0.527774 -0.669098,-1.065991 -0.958636,-1.605673 -0.118058,-0.230721 -0.255008,-0.461734 -0.34468,-0.695876 -0.0652,-0.170279 -0.08817,-0.298708 -0.122213,-0.471438 -0.01593,-0.08105 -0.03,-0.162192 -0.04502,-0.243289 -0.0635,-0.559946 -0.07293,-1.120689 -0.05405,-1.681435 0.0091,-0.537641 0.01678,-1.075513 0.06301,-1.612729 0.04603,-0.578584 0.05285,-1.157503 0.06077,-1.73653 0.01184,-0.891846 0.01964,-1.783724 0.0085,-2.675586 -0.01011,-0.808793 -0.01878,-1.617798 -0.0713,-2.4262303 C 70.029882,8.9587616 69.929453,8.2118463 69.72156,7.4701315 69.68538,7.2237249 69.69339,7.2588425 69.6518,7.0386048 69.643,6.9921168 69.55352,6.9293521 69.62413,6.8992052 c 0.426254,-0.1819981 0.932396,-0.3105072 1.414355,-0.452673 0.0807,-0.023806 -0.289181,0.2067183 -0.07326,0.1367107 -0.08419,0.2381727 -0.120574,0.4799408 -0.157691,0.7209128 -0.08725,0.4790923 -0.221116,0.955148 -0.323645,1.4333811 -0.04989,0.5023008 -0.112695,1.0047 -0.282364,1.5010922 -0.173048,0.537061 -0.354682,1.074365 -0.596015,1.604718 -0.453426,0.911309 -0.908617,1.8225 -1.438999,2.723446 -0.618837,1.100962 -1.24099,2.202724 -1.960983,3.287994 -0.115579,0.155103 -0.222586,0.311912 -0.34676,0.465311 -0.249741,0.308509 -0.545629,0.614615 -0.836132,0.913584 -0.408881,0.420795 -0.835228,0.837542 -1.342942,1.230717 -1.044602,0.76171 -2.208123,1.477691 -3.275262,2.23114 -0.343043,0.240281 -0.470028,0.339604 -0.835721,0.559049 -0.556473,0.333931 -1.177465,0.639745 -1.817506,0.932226 -1.133239,0.498676 -2.3476,0.945144 -3.636691,1.336554 -1.059171,0.332701 -2.088159,0.68846 -3.152776,1.016383 -0.25599,0.0734 -0.347789,0.09575 -0.585559,0.178799 -0.08822,0.03083 -0.169635,0.06648 -0.258733,0.09665 -0.603252,0.204294 -1.251847,0.372149 -1.880324,0.556016 -0.07669,0.02242 -0.155118,0.04332 -0.232675,0.06498 -0.285526,0.08113 -0.567894,0.16848 -0.865719,0.237865 -0.355656,0.08285 -0.418864,0.08567 -0.797861,0.149329 -0.15727,0.0264 -0.314191,0.05337 -0.471286,0.08005 -1.248608,0.201828 -2.50685,0.387387 -3.764984,0.573568 -0.857965,0.105595 -1.71149,0.220528 -2.572987,0.318313 -0.480426,0.07503 -0.938879,0.174178 -1.386183,0.290716 -0.913429,0.2079 -1.835788,0.404981 -2.777706,0.578045 -1.002575,0.195862 -1.994733,0.414053 -3.032743,0.557833 0,0 1.28351,-0.495816 1.28351,-0.495816 z"
       inkscape:connector-curvature="0" />
    <path
       style="fill:#ff0000;stroke-width:0.02732191"
       id="path165"
       d="m 37.303983,11.527182 c 0.123749,-0.302898 0.39663,-0.583034 0.656055,-0.860868 0.33826,-0.333718 0.674335,-0.6674328 1.066211,-0.9860451 0.382511,-0.3040977 0.812839,-0.5902114 1.26547,-0.8681698 0.207513,-0.1305948 0.44124,-0.2499705 0.679621,-0.3660737 0.07918,-0.038565 0.266707,-0.129413 0.367672,-0.159882 0.513799,-0.1550563 1.037355,-0.3017114 1.556029,-0.4525672 0.420922,-0.057927 0.861684,-0.051427 1.293803,-0.059006 0.02272,-3.788e-4 0.935822,-0.019545 0.941654,-0.019659 0.825805,-0.043199 1.63247,-0.1507271 2.410182,-0.2950452 0.444586,-0.1025229 0.899447,-0.1909845 1.353538,-0.2814549 0.217647,-0.034666 0.44217,-0.05279 0.668331,-0.065033 0,0 -1.294458,0.488363 -1.294458,0.488363 v 0 c -0.218925,0.017424 -0.437048,0.038514 -0.644367,0.079627 -0.449638,0.083236 -0.885174,0.1827943 -1.331569,0.2701783 -0.782548,0.1328336 -1.58837,0.2343423 -2.413679,0.2672126 -0.652946,0.015606 -0.315824,0.0072 -0.954224,0.023863 -0.431207,0.01125 -0.878409,0.01125 -1.281591,0.099455 0.395597,-0.1179588 0.791191,-0.2359215 1.18679,-0.3538805 -0.0637,0.021439 -0.13042,0.040734 -0.19109,0.064301 -0.331743,0.128864 -0.615381,0.2918559 -0.894417,0.4477225 -0.455177,0.2748716 -0.887545,0.5577811 -1.274518,0.8585413 -0.394323,0.3164311 -0.741478,0.6455517 -1.077603,0.9785607 -0.251684,0.265796 -0.519512,0.534392 -0.625757,0.826641 0,0 -1.462083,0.36324 -1.462083,0.36324 z"
       inkscape:connector-curvature="0" />
  </g>
</svg>
