<?xml version="1.0" encoding="UTF-8" standalone="no"?>
<!-- Created with Inkscape (http://www.inkscape.org/) -->

<svg
   xmlns:dc="http://purl.org/dc/elements/1.1/"
   xmlns:cc="http://creativecommons.org/ns#"
   xmlns:rdf="http://www.w3.org/1999/02/22-rdf-syntax-ns#"
   xmlns:svg="http://www.w3.org/2000/svg"
   xmlns="http://www.w3.org/2000/svg"
   xmlns:sodipodi="http://sodipodi.sourceforge.net/DTD/sodipodi-0.dtd"
   xmlns:inkscape="http://www.inkscape.org/namespaces/inkscape"
   width="210mm"
   height="297mm"
   viewBox="0 0 210 297"
   version="1.1"
   id="svg3749"
   inkscape:version="0.92.3 (2405546, 2018-03-11)"
   sodipodi:docname="dibujo.svg">
  <defs
     id="defs3743" />
  <sodipodi:namedview
     id="base"
     pagecolor="#ffffff"
     bordercolor="#666666"
     borderopacity="1.0"
     inkscape:pageopacity="0.0"
     inkscape:pageshadow="2"
     inkscape:zoom="0.24748737"
     inkscape:cx="389.34879"
     inkscape:cy="678.34673"
     inkscape:document-units="mm"
     inkscape:current-layer="layer1"
     showgrid="false"
     inkscape:lockguides="false"
     inkscape:window-width="1366"
     inkscape:window-height="705"
     inkscape:window-x="-8"
     inkscape:window-y="-8"
     inkscape:window-maximized="1"
     inkscape:snap-global="false" />
  <metadata
     id="metadata3746">
    <rdf:RDF>
      <cc:Work
         rdf:about="">
        <dc:format>image/svg+xml</dc:format>
        <dc:type
           rdf:resource="http://purl.org/dc/dcmitype/StillImage" />
        <dc:title />
      </cc:Work>
    </rdf:RDF>
  </metadata>
  <g
     inkscape:label="Capa 1"
     inkscape:groupmode="layer"
     id="layer1">
    <path
       id="path3751"
       d="m 23.139567,17.652499 c -0.08941,2.475882 -0.0646,4.954433 -0.04636,7.431405 -0.0052,2.043277 0.02636,4.086432 0.01855,6.129687 -0.0028,2.054781 -0.01375,4.109501 -0.0065,6.164292 0.0092,1.732248 0.01682,3.464502 0.02076,5.196768 -0.0098,1.736032 -0.0017,3.472183 -0.01284,5.208217 -0.0033,1.769634 0.0057,3.539263 0.01049,5.308886 0.01026,1.658255 -0.006,3.316417 -0.0059,4.974664 0.01474,1.869914 -0.01413,3.739494 -0.01296,5.609381 0.0059,1.776947 0.01512,3.553875 0.01997,5.330825 0.0099,1.645716 -0.0067,3.291329 -0.0068,4.937035 -0.01961,2.144194 -0.02533,4.288451 -0.01633,6.432711 0.01799,1.836074 0.01514,3.672107 0.01323,5.508207 0.0093,1.799773 -0.0024,3.599487 6.6e-5,5.399257 0.0047,1.654156 0.0094,3.30831 0.01191,4.962469 -0.01662,1.727023 -0.008,3.454167 -0.004,5.181237 0,0 -9.95988,5.07481 -9.95988,5.07481 v 0 c 0.004,-1.72569 0.0126,-3.45146 -0.004,-5.17711 0.0025,-1.658208 0.0072,-3.316407 0.01191,-4.974606 0.0024,-1.799794 -0.0093,-3.599532 6.6e-5,-5.399329 -0.0019,-1.840592 -0.0047,-3.681121 0.01323,-5.52169 0.0089,-2.138714 0.0034,-4.277423 -0.01633,-6.416069 -1.28e-4,-1.64339 -0.01671,-3.286691 -0.0068,-4.930089 0.0049,-1.783734 0.01408,-3.567449 0.01997,-5.351177 0.0012,-1.86549 -0.02772,-3.730665 -0.01296,-5.596181 6.6e-5,-1.656236 -0.01618,-3.31239 -0.0059,-4.968637 0.0047,-1.773187 0.01378,-3.546377 0.01049,-5.319572 -0.01115,-1.731671 -0.003,-3.463456 -0.01285,-5.195128 0.004,-1.739318 0.01159,-3.478622 0.02076,-5.217922 0.0072,-2.05259 -0.0036,-4.105111 -0.0065,-6.157693 -0.0079,-2.049552 0.02383,-4.099009 0.01855,-6.148588 0.01798,-2.461205 0.04406,-4.924087 -0.04636,-7.384157 0,0 9.993421,-5.091903 9.993421,-5.091903 z"
       inkscape:connector-curvature="0"
       style="stroke-width:0.26458332" />
    <path
       id="path3755"
       d="m 26.336559,55.578734 c 2.171927,0.05327 4.3259,0.163682 6.446112,-0.363035 0.346718,-0.09129 0.707162,-0.140959 1.040156,-0.273865 0.60887,-0.243014 4.242118,-2.416685 2.228311,-1.288422 -14.342178,8.035398 -9.479952,6.023972 -6.552449,3.238036 1.597205,-1.521227 2.992329,-3.162024 4.16124,-5.031411 1.135028,-1.642428 1.711711,-3.449289 2.001755,-5.40234 0.203584,-1.747408 0.201499,-3.509099 0.20006,-5.265605 -0.005,-1.594969 -0.0284,-3.189803 -0.0062,-4.784677 0.04017,-2.174849 -0.157691,-4.345768 0.334473,-6.476516 1.100601,-2.728791 3.27714,-4.988903 5.53175,-6.833128 4.539731,-3.21511 8.749966,-6.472216 14.205754,-6.835191 0,0 -8.958747,6.651038 -8.958747,6.651038 v 0 c -0.76486,0.10885 -1.041405,0.117697 -1.782696,0.34487 -0.277701,0.0851 -1.065024,0.454373 -0.8167,0.303722 7.055676,-4.280468 11.858093,-6.671376 7.661397,-4.559236 -2.334189,1.574082 -4.411271,3.701589 -5.785945,6.160942 -0.732677,1.98594 -0.421259,4.09179 -0.449607,6.17622 0.02965,1.591575 0.02222,3.183504 0.02984,4.775311 -0.0013,1.805496 -0.0058,3.614076 -0.173373,5.413492 -0.23141,2.062072 -0.601393,4.072411 -1.815965,5.813107 -1.101953,1.969048 -2.385261,3.76224 -4.076057,5.266947 -3.330985,3.870989 -7.351673,5.110707 -12.319765,8.008916 -1.095673,0.63918 -2.268106,1.110469 -3.525856,1.305049 -2.207673,0.317365 -4.42658,0.196377 -6.651334,0.248306 0,0 9.073836,-6.59253 9.073836,-6.59253 z"
       inkscape:connector-curvature="0"
       style="stroke-width:0.26458332" />
    <path
       style="fill:#000000;stroke-width:0.26458332"
       id="path17"
       d="m 33.140131,54.822783 c 1.844347,0.138205 3.708543,-0.09592 5.545532,0.161763 0.596572,0.08368 1.735468,0.378571 2.340234,0.527495 2.254372,0.594616 3.18276,2.215774 3.71553,4.340203 0.343803,1.791293 0.353722,3.621665 0.340051,5.438677 0.132665,1.878582 -0.18479,3.639577 -0.826672,5.394847 -0.810337,1.755685 -1.143781,3.642002 -1.343655,5.548862 -0.140885,1.631376 -0.141713,3.270065 -0.143031,4.906148 -0.05062,1.510371 -0.07214,2.939404 0.541425,4.338865 0.906264,1.870575 1.261245,3.922768 1.712761,5.93353 0.546423,1.775118 1.83831,3.16126 2.738732,4.756681 0.910788,1.43014 1.399325,3.007405 1.636294,4.671456 0,0 -9.888744,5.20466 -9.888744,5.20466 v 0 c -0.188806,-1.53499 -0.580654,-2.99056 -1.437849,-4.30245 -0.929502,-1.70116 -2.276308,-3.176916 -2.849361,-5.063049 -0.426421,-1.933059 -0.764736,-3.914359 -1.6452,-5.70517 -0.725303,-1.54295 -0.898586,-3.058451 -0.777219,-4.755849 0.0011,-1.67273 0.0016,-3.34741 0.124724,-5.016621 0.176525,-1.985619 0.423045,-3.981469 1.188834,-5.840177 0.748522,-1.605524 1.174541,-3.218217 1.020228,-5.00701 -0.0011,-1.738397 0.05123,-3.487946 -0.212431,-5.212275 -0.421601,-1.976747 -0.994312,-2.803687 -3.043799,-3.302156 -2.57435,-0.578057 -5.18256,-0.544627 -7.810221,-0.425903 0,0 9.073837,-6.592527 9.073837,-6.592527 z"
       inkscape:connector-curvature="0" />
    <path
       style="fill:#000000;stroke-width:0.26458332"
       id="path29"
       d="m 89.314146,30.308576 c -1.53275,-1.630632 -3.507536,-2.639007 -5.623097,-3.277248 -2.091936,-0.423754 -4.234357,-0.436594 -6.359872,-0.447543 -1.984996,-0.0019 -3.969842,0.02663 -5.954802,0.02912 -2.408946,0.222972 -4.753232,1.02729 -6.903132,2.115629 16.259857,-8.941099 8.884149,-5.884509 6.318588,-3.022552 -0.917892,1.023937 -1.52649,2.162625 -2.09926,3.397091 -0.897792,2.281669 -0.968634,4.740667 -1.036664,7.158442 -0.226978,2.762195 0.152583,5.385869 1.017228,8.0004 1.097698,3.201704 2.660886,4.8299 5.191535,6.914277 1.07954,1.051769 2.559852,1.336418 3.845843,1.993876 0.325753,0.166536 1.968259,1.242041 2.238695,1.417182 2.531293,1.599314 4.635969,3.748535 6.595272,5.990378 2.446573,2.635824 3.982759,5.85783 5.13071,9.225381 1.077547,3.005127 2.355405,5.934644 3.284542,8.991121 0.620581,2.221807 0.718511,4.488931 0.536364,6.773328 -0.216898,2.502715 -1.219192,4.689094 -2.565091,6.767909 -1.379828,2.15895 -3.371799,3.618674 -5.537512,4.899649 -7.703396,4.557194 -9.4224,6.598894 -16.596907,7.176754 -1.932879,0.18794 -3.823584,0.13285 -5.731629,-0.17802 -1.881317,-0.3884 -3.738163,-0.40065 -5.635911,-0.20549 -0.940628,0.31016 -1.967709,0.37767 -2.90495,0.69311 -0.808623,0.27215 -1.056587,0.49987 -1.75817,0.96199 2.900892,-1.65449 5.801783,-3.30897 8.702675,-4.96346 0,0 -10.367684,4.08658 -10.367684,4.08658 v 0 c 5.388408,-3.1869 9.314312,-6.737071 15.280655,-7.395309 1.954358,-0.121145 3.878083,0.04627 5.806014,0.389906 1.840778,0.224223 3.691694,0.151346 5.537248,-0.0075 1.183584,-0.132469 2.341665,-0.278699 3.487938,-0.61976 3.669419,-1.091801 9.108482,-5.023871 -6.170308,4.038323 2.128298,-1.216735 4.27282,-2.362804 5.707526,-4.440355 1.390949,-1.89879 2.511919,-3.864956 2.787075,-6.248863 0.241578,-2.1565 0.204828,-4.29469 -0.325225,-6.415762 -0.818947,-3.076694 -2.045589,-6.01626 -3.153651,-8.996487 -1.120995,-3.242421 -2.531893,-6.33268 -4.972227,-8.819827 -1.910379,-2.157854 -3.957881,-4.208259 -6.444875,-5.704422 -2.040249,-1.22623 -4.330461,-1.983083 -6.16146,-3.546361 -2.674112,-2.288341 -4.212204,-4.074102 -5.490887,-7.437183 -0.944521,-2.710355 -1.437466,-5.441188 -1.22505,-8.326512 0.03271,-2.530763 0.07168,-5.107381 0.862647,-7.537439 2.601791,-6.880717 7.63396,-8.172232 14.544929,-11.92186 2.297298,-0.955519 4.712922,-1.710176 7.22104,-1.760652 1.985489,-0.01483 3.971314,-0.02305 5.956766,-0.0062 2.203905,0.04714 4.430953,0.120895 6.564685,0.733446 2.246836,0.85308 4.304432,2.08105 6.036792,3.765431 0,0 -9.636403,5.759499 -9.636403,5.759499 z"
       inkscape:connector-curvature="0" />
    <path
       style="fill:#000000;stroke-width:0.23594829"
       id="path35"
       d="m 104.9239,89.492651 c 2.1342,-3.629455 3.94862,-7.395514 5.93004,-11.090582 3.15633,-5.506057 6.38662,-10.96966 9.33584,-16.566432 2.02206,-3.677046 3.56018,-7.51899 4.81814,-11.443596 0.69863,-2.935401 1.74124,-5.790298 2.58441,-8.694032 0.55992,-1.865662 0.78939,-3.781255 0.88659,-5.703048 0.0428,-1.423785 0.0396,-2.84818 0.0319,-4.272301 0.0248,-1.510398 -0.0665,-3.024445 0.037,-4.532716 0.32587,-1.294627 0.79232,-2.597157 1.61487,-3.714974 6.53148,-6.181572 10.38969,-7.615905 11.21018,-1.921276 0.19493,1.797893 0.16104,3.607514 0.17194,5.411666 -0.0202,1.903649 -0.0225,3.807299 -0.0152,5.710918 -0.004,1.716141 0.009,3.432161 -0.004,5.148272 0.0237,2.002723 -0.0809,4.007177 0.05,6.007164 0.25003,2.106048 0.46075,4.215198 0.56241,6.331154 0.0677,2.143125 0.4073,4.267834 0.5949,6.40409 0.80679,2.797126 1.60058,5.592701 2.20398,8.43222 0.45744,2.817182 0.98286,5.632329 1.72466,8.403106 0.50946,1.898787 1.08198,3.777791 1.79593,5.624337 0.25396,1.349937 1.26911,2.127018 2.24371,3.084434 1.19366,1.179144 2.37629,2.360417 3.50571,3.587729 1.51239,1.634696 2.17259,3.662824 2.9654,5.609809 0.74492,1.669949 1.25222,3.398125 1.47342,5.179878 0.24789,1.654754 -0.12787,3.218214 -0.88309,4.725889 -0.62616,0.94817 -1.35267,1.94983 -2.46272,2.51661 -9.69634,4.953 -6.2645,4.08454 -10.7434,5.12956 l 8.37517,-5.73348 v 0 c 3.75547,-1.35692 0.69628,-0.2887 -7.50313,3.98767 -0.26308,0.13979 0.55223,-0.23401 0.81254,-0.37472 0.73389,-0.39811 0.79931,-0.48988 1.33386,-1.07429 0.18276,-0.20057 0.35073,-0.40966 0.52609,-0.6148 0.891,-1.28855 1.32587,-2.72266 1.15026,-4.23942 -0.1788,-1.715528 -0.57642,-3.39505 -1.29021,-5.005493 -0.76637,-1.844693 -1.36598,-3.777182 -2.8189,-5.320342 -1.13592,-1.206495 -2.34396,-2.352818 -3.53356,-3.517984 -1.08231,-1.036006 -2.15156,-1.977194 -2.4237,-3.441156 -0.69946,-1.886935 -1.30578,-3.793168 -1.75904,-5.739638 -0.73528,-2.795301 -1.25439,-5.630049 -1.68138,-8.474126 -0.58347,-2.869151 -1.41757,-5.679891 -2.36114,-8.472487 -0.16669,-2.146165 1.12063,-12.239003 1.03235,-14.387812 1.64948,-7.961108 0.28052,2.097237 0,0 -0.18442,-2.011534 -2.28477,-2.381081 -2.31192,-4.398117 -0.0122,-1.716141 4.6e-4,-3.432251 0.004,-5.148484 0.0145,-1.903345 0.0257,-3.806753 0.0163,-5.710039 0.0122,-1.768715 0.0237,-3.540167 -0.1295,-5.304962 -0.0641,-0.500529 -0.096,-0.914446 -0.23206,-1.400386 -0.0358,-0.127643 -0.0819,-0.255279 -0.1484,-0.373801 -0.0122,-0.02064 -0.0472,0.07598 -0.0247,0.06686 9.2653,-4.606686 12.17227,-5.280925 8.37428,-4.347426 -1.2782,0.924777 -1.21062,1.948628 -1.88879,3.200162 -0.29375,1.45995 -0.0387,2.964575 -0.10999,4.440754 0.007,1.438677 0.0396,2.877964 -0.0162,4.316247 -0.10024,1.995427 -0.31724,3.993409 -0.90586,5.929028 -0.87661,2.913217 -4.24672,1.380938 -4.93714,4.33357 -1.2857,4.019028 -0.59262,12.325644 -2.69159,16.078088 -2.96828,5.606801 -6.1795,11.096327 -9.40244,16.590624 -1.85149,3.612193 -3.55621,7.280517 -5.37186,10.897968 l -9.71271,3.871818 z"
       inkscape:connector-curvature="0"
       sodipodi:nodetypes="cccccccccccccccccccccccccccccccccccccccccccccccccccccccccccc" />
    <path
       style="fill:#000000;stroke-width:0.26458332"
       id="path37"
       d="m 132.31956,75.294581 c -4.57071,-2.90517 -9.96221,-4.027948 -15.16407,-5.242237 0,0 8.83337,-6.106147 8.83337,-6.106147 v 0 c 5.38829,1.320594 10.86116,2.633028 15.77314,5.302491 0,0 -9.44244,6.045893 -9.44244,6.045893 z"
       inkscape:connector-curvature="0" />
    <path
       style="fill:#000000;stroke-width:0.26458332"
       id="path43"
       d="m 24.537302,94.144773 c -0.613167,2.171475 -1.318889,4.313275 -2.149083,6.411217 -0.939826,2.17376 -1.769204,4.35463 -3.226825,6.24055 -3.973367,3.74492 -8.932036,7.20434 -14.4656752,7.5262 -0.2197438,0.0188 -0.4559339,0.14179 -0.6592318,0.0563 -0.2548811,-0.10719 -1.0173139,-1.24274 -0.651846,-1.50009 3.1954782,-2.25011 6.718902,-3.99408 10.078352,-5.99113 0,0 -8.7693712,7.01113 -8.7693712,7.01113 v 0 c 3.017281,-1.82701 6.1657002,-3.45319 9.0518432,-5.48103 0.269655,-0.18946 -0.730159,-0.40607 -0.690899,-0.70721 0.175268,-0.10037 0.402573,-0.0333 0.603859,-0.0499 0.670532,-0.10941 0.973201,-0.13049 1.610137,-0.33979 0.256999,-0.0845 0.987123,-0.4362 0.75544,-0.29654 -15.62429615,9.41812 -10.3658531,6.23767 -7.1078324,4.09604 1.8064104,-1.81717 2.3636304,-3.61678 3.3603624,-5.91023 0.900441,-2.0102 1.645771,-4.10705 2.13399,-6.255733 0,0 10.12678,-4.809734 10.12678,-4.809734 z"
       inkscape:connector-curvature="0" />
  </g>
</svg>
